<svg width="131" height="83" viewBox="0 0 131 83" fill="none" xmlns="http://www.w3.org/2000/svg">
<path d="M130.169 82.3585C130.169 82.0286 129.249 79.1251 128.131 75.8917C120.041 52.994 106.952 39.0046 91.2987 36.761C86.9578 36.1011 81.8934 36.2991 78.8022 37.1569C78.0129 37.3549 77.0263 36.4311 75.5794 34.0555C71.1069 26.7309 61.9647 19.5382 51.7044 15.1831C43.7461 11.8177 37.6952 10.4319 23.949 8.65028L20.6604 8.25435L24.7383 6.53867C28.8161 4.88898 29.8026 3.89916 29.1449 2.18348C28.4872 0.401817 26.9087 0.533793 21.7128 2.71139C18.8846 3.96515 13.1625 6.07676 9.08472 7.39651C4.94114 8.71626 1.19218 10.168 0.731781 10.6299C-0.715179 12.0816 0.53447 13.4014 5.59885 15.9749C8.36124 17.2947 12.176 19.7362 14.1491 21.3859C17.9638 24.4213 20.4631 24.9492 20.8578 22.7057C21.1866 21.1879 18.4242 18.2185 14.6095 15.7769C13.031 14.7871 11.7813 13.7313 11.7813 13.4014C11.7813 12.5435 26.8429 13.4014 33.3543 14.6552C49.2051 17.6906 62.6882 24.7513 69.923 33.9895C71.5673 36.0352 72.9485 37.9488 72.9485 38.1468C72.9485 38.4107 72.1593 38.8066 71.1727 39.0706C70.1861 39.2686 66.8318 40.7203 63.8063 42.172C51.5071 48.0449 45.3904 58.339 49.0078 66.9834C53.3487 77.4094 67.8841 79.2571 75.9082 70.2828C80.7753 64.9378 82.7484 57.7451 81.5645 49.9586C81.1699 47.451 80.578 44.6795 80.1833 43.6897C79.131 40.9842 79.2626 40.8523 83.2088 40.3244C91.1014 39.3345 101.164 42.7659 108.07 48.7708C114.516 54.3137 122.935 67.8412 126.881 78.8612C127.736 81.1707 128.788 82.9524 129.249 82.9524C129.775 82.9524 130.169 82.6884 130.169 82.3585ZM56.703 70.0188C53.4803 67.5773 52.2306 65.2677 52.2964 61.9023C52.3622 55.6335 57.6896 49.6286 67.2922 45.0095C74.1982 41.7101 74.9217 41.7101 76.1055 45.3394C76.6317 46.9891 77.0263 50.5524 77.0263 53.3239C77.0921 61.3084 73.6062 67.8412 68.0157 70.5467C64.6614 72.1304 59.2024 71.8665 56.703 70.0188Z" fill="white"/>
</svg>
