<svg width="21" height="16" viewBox="0 0 21 16" fill="none" xmlns="http://www.w3.org/2000/svg">
<g opacity="0.8">
<path d="M1.28036 12.1962C1.61151 12.8314 2.35522 13.0702 2.93065 12.7228C3.08808 12.6305 4.35836 11.3548 6.37236 9.24853C8.13122 7.42453 9.58608 5.92625 9.60236 5.92625C9.61865 5.92625 11.0735 7.42453 12.8324 9.25396C14.8464 11.3548 16.1166 12.6305 16.2741 12.7228C16.7138 12.9888 17.3489 12.902 17.6909 12.5328C18.0329 12.1745 18.1252 11.5665 17.8918 11.154C17.8266 11.0291 16.0895 9.18339 14.0375 7.04996C11.1604 4.05882 10.2484 3.14682 10.0855 3.08168C9.81408 2.97311 9.39065 2.97311 9.11922 3.08168C8.95636 3.14682 8.05522 4.04796 5.16722 7.04996C3.11522 9.18339 1.37808 11.0291 1.30751 11.154C1.16093 11.42 1.14465 11.9465 1.28036 12.1962Z" fill="#0D0D0D"/>
</g>
</svg>
