<svg width="19" height="18" viewBox="0 0 19 18" fill="none" xmlns="http://www.w3.org/2000/svg">
<path fill-rule="evenodd" clip-rule="evenodd" d="M8.91787 7.35439L5.55195 7.36097L2.18289 7.37085L2.02918 7.46958C1.93507 7.53212 1.84097 7.63085 1.78136 7.72959C1.69667 7.8777 1.68726 7.91719 1.68726 8.1772C1.68726 8.4372 1.69667 8.4767 1.78136 8.6248C1.84097 8.72354 1.93507 8.82227 2.02918 8.88481L2.18289 8.98354L5.55195 8.99342L8.91787 9H10.4863L13.8522 8.99342L17.2213 8.98354L17.375 8.88481C17.4691 8.82227 17.5632 8.72354 17.6228 8.6248C17.7075 8.4767 17.7169 8.4372 17.7169 8.1772C17.7169 7.91719 17.7075 7.8777 17.6228 7.72959C17.5632 7.63085 17.4691 7.53212 17.375 7.46958L17.2213 7.37085L13.8522 7.36097L10.4863 7.35439H8.91787Z" fill="white" stroke="white"/>
</svg>
