<svg width="80" height="80" viewBox="0 0 80 80" fill="none" xmlns="http://www.w3.org/2000/svg">
<path opacity="0.2" d="M14.9039 2.13565C14.8028 0.534387 16.5336 -0.528168 17.9157 0.286686L45.1403 16.3372C45.485 16.5404 45.8827 16.6356 46.2821 16.6104L77.823 14.6178C79.4243 14.5167 80.4868 16.2474 79.672 17.6296L63.6214 44.8542C63.4182 45.1989 63.3231 45.5966 63.3483 45.996L65.3408 77.5369C65.442 79.1381 63.7112 80.2007 62.3291 79.3859L35.1045 63.3353C34.7598 63.1321 34.362 63.0369 33.9627 63.0622L2.42177 65.0547C0.820504 65.1559 -0.242051 63.4251 0.572803 62.043L16.6233 34.8184C16.8266 34.4737 16.9217 34.0759 16.8965 33.6765L14.9039 2.13565Z" fill="#D1D1D1"/>
</svg>
