<svg width="18" height="19" viewBox="0 0 18 19" fill="none" xmlns="http://www.w3.org/2000/svg">
<path d="M8.31729 1.13028C8.22632 1.17965 8.11653 1.26522 8.07575 1.32446C7.89381 1.5746 7.90322 1.36396 7.90322 5.16202V8.65071L4.5373 8.65729L1.16824 8.66717L1.01453 8.7659C0.920424 8.82844 0.826317 8.92717 0.766715 9.02591C0.682018 9.17401 0.672607 9.21351 0.672607 9.47351C0.672607 9.73352 0.682018 9.77301 0.766715 9.92112C0.826317 10.0199 0.920424 10.1186 1.01453 10.1811L1.16824 10.2799L4.5373 10.2897L7.90322 10.2963L7.90949 13.8278L7.9189 17.3626L8.01301 17.5238C8.07261 17.6226 8.16672 17.7213 8.26083 17.7838C8.40199 17.8727 8.43963 17.8826 8.68745 17.8826C8.93527 17.8826 8.97291 17.8727 9.11407 17.7838C9.20818 17.7213 9.30229 17.6226 9.36189 17.5238L9.456 17.3626L9.46541 13.8278L9.47168 10.2963L12.8376 10.2897L16.2067 10.2799L16.3604 10.1811C16.4545 10.1186 16.5486 10.0199 16.6082 9.92112C16.6929 9.77301 16.7023 9.73352 16.7023 9.47351C16.7023 9.21351 16.6929 9.17401 16.6082 9.02591C16.5486 8.92717 16.4545 8.82844 16.3604 8.7659L16.2067 8.66717L12.8376 8.65729L9.47168 8.65071L9.46541 5.11924L9.456 1.58447L9.36189 1.4232C9.21759 1.17965 9.01996 1.06775 8.72196 1.05459C8.51492 1.04471 8.46159 1.05459 8.31729 1.13028Z" fill="white" stroke="white"/>
</svg>
